<?xml version="1.0" encoding="utf-8"?>
<!-- Svg Vector Icons : http://www.onlinewebfonts.com/icon -->
<!DOCTYPE svg PUBLIC "-//W3C//DTD SVG 1.1//EN" "http://www.w3.org/Graphics/SVG/1.1/DTD/svg11.dtd">
<svg version="1.1" xmlns="http://www.w3.org/2000/svg" xmlns:xlink="http://www.w3.org/1999/xlink" x="0px" y="0px" viewBox="0 0 1000 1000" enable-background="new 0 0 1000 1000" xml:space="preserve">
<metadata> Svg Vector Icons : http://www.onlinewebfonts.com/icon </metadata>
<g><path d="M500,10C229.8,10,10,229.8,10,500c0,270.2,219.8,490,490,490c270.2,0,490-219.8,490-490C990,229.8,770.2,10,500,10z M762.8,468.3l-212.3,181c-14.4,12.3-32.2,18.4-50,18.5c-17.8,0-35.5-6.1-50-18.3l-213-180.2c-32.5-27.6-36.6-76.3-9-108.9c27.6-32.6,76.3-36.7,108.9-9.1l162.9,137.8l162.4-138.4c32.5-27.7,81.2-23.8,108.9,8.7C799.1,391.9,795.3,440.6,762.8,468.3z"/></g>
</svg>